# xmcd CD database file
#
# Track frame offsets:
#	150
#	20102
#	29215
#	45447
#	69635
#	84257
#	94450
#	108517
#	127865
#	138910
#	157795
#	191240
#	211297
#	232000
#
# Disc length: 3228 seconds
#
# Revision: 0
# Processed by: cddbd v1.4PL0 Copyright (c) Steve Scherf et al.
# Submitted via: CDex 1.50
#
DISCID=c20c9a0e
DTITLE=Blue Note Seven - Swingin' Dixieland From Vienna
DYEAR=1990
DGENRE=Blues
TTITLE0=Promenade aux Champs Elysees
TTITLE1=So long Dearie
TTITLE2=Who's sorry now
TTITLE3=St. Louis blues
TTITLE4=Summit ride drive
TTITLE5=Radetzky Swing
TTITLE6=Oh baby
TTITLE7=Kansas City man blues
TTITLE8=Within' the circle of your arms
TTITLE9=I get the blues when it rains
TTITLE10=Lester leaps in
TTITLE11=Some of these days
TTITLE12=Gettysburgh march
TTITLE13=It's been a long long time
EXTD=YEAR: 1990
EXTT0=
EXTT1=
EXTT2=
EXTT3=
EXTT4=
EXTT5=
EXTT6=
EXTT7=
EXTT8=
EXTT9=
EXTT10=
EXTT11=
EXTT12=
EXTT13=
PLAYORDER=
